/* XPM */
static char * bottom_left_active_xpm[] = {
"16 16 4 1",
" 	c None",
".	c #141414",
"+	c #474747",
"@	c #313131",
".+++@           ",
".+++@           ",
".+++@           ",
".+++@           ",
".+++@           ",
".+++@           ",
".+++@           ",
".+++@           ",
".+++@           ",
".+++@           ",
".+++@           ",
".+++@@@@@@@@@@@@",
".+++++++++++++++",
".+++++++++++++++",
".+++++++++++++++",
"................"};
