/* XPM */
static char * close_active_xpm[] = {
"27 22 51 1",
" 	c None",
".	c #222222",
"+	c #656565",
"@	c #7E7E7E",
"#	c #212121",
"$	c #7A7A7A",
"%	c #6C6C6C",
"&	c #777777",
"*	c #686868",
"=	c #535353",
"-	c #3E3E3E",
";	c #202020",
">	c #747474",
",	c #3D3D3D",
"'	c #FFFFFF",
")	c #707070",
"!	c #616161",
"~	c #3A3A3A",
"{	c #1F1F1F",
"]	c #6E6E6E",
"^	c #5E5E5E",
"/	c #383838",
"(	c #1E1E1E",
"_	c #6A6A6A",
":	c #5A5A5A",
"<	c #363636",
"[	c #676767",
"}	c #575757",
"|	c #343434",
"1	c #1D1D1D",
"2	c #646464",
"3	c #323232",
"4	c #000000",
"5	c #444444",
"6	c #303030",
"7	c #030303",
"8	c #494949",
"9	c #353535",
"0	c #060606",
"a	c #4D4D4D",
"b	c #2E2E2E",
"c	c #232323",
"d	c #090909",
"e	c #525252",
"f	c #3F3F3F",
"g	c #0C0C0C",
"h	c #454545",
"i	c #0F0F0F",
"j	c #4A4A4A",
"k	c #5C5C5C",
"l	c #121212",
" ......................... ",
".+@@@@@@@@@@@@@@@@@@@@@@@+.",
"#$%%%%%%%%%%%%%%%%%%%%%%%$#",
"#&******=--****--=*******&#",
";>++++++,'',++,'',+++++++>;",
";)!!!!!!~'''~~'''~!!!!!!!);",
"{]^^^^^^^/''''''/^^^^^^^^]{",
"(_::::::::<''''<:::::::::_(",
"([}}}}}}}}|''''|}}}}}}}}}[(",
"12=======3''''''3========21",
"456666661'''11'''1666666654",
"78999999;'';99;'';999999987",
"0a~~~~~~bcc~~~~ccb~~~~~~~a0",
"defffffffffffffffffffffffed",
"g}hhhhhhhhhhhhhhhhhhhhhhh}g",
"ijkkkkkkkkkkkkkkkkkkkkkkkji",
" lllllllllllllllllllllllll ",
"                           ",
"                           ",
"                           ",
"                           ",
"                           "};
