/* XPM */
static char * hide_active_xpm[] = {
"27 22 45 1",
" 	c None",
".	c #222222",
"+	c #656565",
"@	c #7E7E7E",
"#	c #212121",
"$	c #7A7A7A",
"%	c #6C6C6C",
"&	c #777777",
"*	c #686868",
"=	c #202020",
"-	c #747474",
";	c #707070",
">	c #616161",
",	c #1F1F1F",
"'	c #6E6E6E",
")	c #5E5E5E",
"!	c #1E1E1E",
"~	c #6A6A6A",
"{	c #5A5A5A",
"]	c #676767",
"^	c #575757",
"/	c #1D1D1D",
"(	c #646464",
"_	c #535353",
":	c #323232",
"<	c #000000",
"[	c #444444",
"}	c #303030",
"|	c #FFFFFF",
"1	c #030303",
"2	c #494949",
"3	c #353535",
"4	c #060606",
"5	c #4D4D4D",
"6	c #3A3A3A",
"7	c #232323",
"8	c #090909",
"9	c #525252",
"0	c #3F3F3F",
"a	c #0C0C0C",
"b	c #454545",
"c	c #0F0F0F",
"d	c #4A4A4A",
"e	c #5C5C5C",
"f	c #121212",
" ......................... ",
".+@@@@@@@@@@@@@@@@@@@@@@@+.",
"#$%%%%%%%%%%%%%%%%%%%%%%%$#",
"#&***********************&#",
"=-+++++++++++++++++++++++-=",
"=;>>>>>>>>>>>>>>>>>>>>>>>;=",
",')))))))))))))))))))))))',",
"!~{{{{{{{{{{{{{{{{{{{{{{{~!",
"!]^^^^^^^^^^^^^^^^^^^^^^^]!",
"/(______::::::::::_______(/",
"<[}}}}}}/||||||||/}}}}}}}[<",
"12333333=||||||||=333333321",
"456666667777777777666666654",
"890000000000000000000000098",
"a^bbbbbbbbbbbbbbbbbbbbbbb^a",
"cdeeeeeeeeeeeeeeeeeeeeeeedc",
" fffffffffffffffffffffffff ",
"                           ",
"                           ",
"                           ",
"                           ",
"                           "};
