/* XPM */
static char * hide_pressed_xpm[] = {
"27 22 53 1",
" 	c None",
".	c #363636",
"+	c #3C3C3C",
"@	c #393939",
"#	c #2A8FCC",
"$	c #35B3FF",
"%	c #34ADF5",
"&	c #1EA4F4",
"*	c #333333",
"=	c #33A7EC",
"-	c #1D9DEA",
";	c #303030",
">	c #32A0E3",
",	c #1C96E0",
"'	c #2D2D2D",
")	c #319ADA",
"!	c #1B8FD6",
"~	c #2B2B2B",
"{	c #3095D1",
"]	c #1A89CC",
"^	c #272727",
"/	c #308EC8",
"(	c #1982C2",
"_	c #242424",
":	c #2F88BF",
"<	c #187BB8",
"[	c #222222",
"}	c #2E82B6",
"|	c #1774AE",
"1	c #0D4568",
"2	c #000000",
"3	c #30759E",
"4	c #1A6694",
"5	c #0F3D58",
"6	c #FFFFFF",
"7	c #030303",
"8	c #3076A0",
"9	c #196796",
"0	c #0F3D5A",
"a	c #060606",
"b	c #3077A3",
"c	c #196899",
"d	c #0F3E5B",
"e	c #090909",
"f	c #2F78A5",
"g	c #18699B",
"h	c #0C0C0C",
"i	c #2F7AA8",
"j	c #186B9E",
"k	c #0F0F0F",
"l	c #256288",
"m	c #2E7AAA",
"n	c #121212",
" .++++++++++++++++++++++++ ",
"@#$$$$$$$$$$$$$$$$$$$$$$$#@",
".%&&&&&&&&&&&&&&&&&&&&&&&%.",
"*=-----------------------=*",
";>,,,,,,,,,,,,,,,,,,,,,,,>;",
"')!!!!!!!!!!!!!!!!!!!!!!!)'",
"~{]]]]]]]]]]]]]]]]]]]]]]]{~",
"^/(((((((((((((((((((((((/^",
"_:<<<<<<<<<<<<<<<<<<<<<<<:_",
"[}||||||1111111111|||||||}[",
"234444445666666665444444432",
"789999990666666660999999987",
"abccccccddddddddddcccccccba",
"efgggggggggggggggggggggggfe",
"hijjjjjjjjjjjjjjjjjjjjjjjih",
"klmmmmmmmmmmmmmmmmmmmmmmmlk",
" nnnnnnnnnnnnnnnnnnnnnnnnn ",
"                           ",
"                           ",
"                           ",
"                           ",
"                           "};
