/* XPM */
static char * left_active_xpm[] = {
"5 800 23 1",
" 	c None",
".	c #141414",
"+	c #343434",
"@	c #313131",
"#	c #353535",
"$	c #363636",
"%	c #373737",
"&	c #383838",
"*	c #393939",
"=	c #3A3A3A",
"-	c #3B3B3B",
";	c #3C3C3C",
">	c #3D3D3D",
",	c #3E3E3E",
"'	c #3F3F3F",
")	c #404040",
"!	c #414141",
"~	c #424242",
"{	c #434343",
"]	c #444444",
"^	c #454545",
"/	c #464646",
"(	c #323232",
".+++@",
".+++@",
".+++@",
".+++@",
".+++@",
".+++@",
".+++@",
".+++@",
".+++@",
".+++@",
".###@",
".###@",
".###@",
".###@",
".###@",
".$$$@",
".$$$@",
".$$$@",
".$$$@",
".$$$@",
".$$$@",
".$$$@",
".$$$@",
".$$$@",
".%%%@",
".%%%@",
".%%%@",
".%%%@",
".%%%@",
".%%%@",
".%%%@",
".%%%@",
".&&&@",
".&&&@",
".&&&@",
".&&&@",
".&&&@",
".&&&@",
".***@",
".***@",
".***@",
".***@",
".***@",
".***@",
".***@",
".***@",
".***@",
".===@",
".===@",
".===@",
".===@",
".===@",
".===@",
".===@",
".===@",
".===@",
".---@",
".---@",
".---@",
".---@",
".---@",
".;;;@",
".;;;@",
".;;;@",
".;;;@",
".;;;@",
".;;;@",
".;;;@",
".;;;@",
".;;;@",
".>>>@",
".>>>@",
".>>>@",
".>>>@",
".>>>@",
".>>>@",
".>>>@",
".>>>@",
".>>>@",
".,,,@",
".,,,@",
".,,,@",
".,,,@",
".,,,@",
".'''@",
".'''@",
".'''@",
".'''@",
".'''@",
".'''@",
".'''@",
".'''@",
".'''@",
".)))@",
".)))@",
".)))@",
".)))@",
".)))@",
".)))@",
".)))@",
".)))@",
".)))@",
".!!!@",
".!!!@",
".!!!@",
".!!!@",
".!!!@",
".~~~@",
".~~~@",
".~~~@",
".~~~@",
".~~~@",
".~~~@",
".{{{@",
".{{{@",
".{{{@",
".{{{@",
".{{{@",
".]]]@",
".]]]@",
".]]]@",
".]]]@",
".]]]@",
".]]]@",
".]]]@",
".]]]@",
".]]]@",
".^^^@",
".^^^@",
".^^^@",
".^^^@",
".^^^@",
".^^^@",
".^^^@",
".^^^@",
".^^^@",
".^^^@",
".^^^@",
".///@",
".///(",
".///(",
".///(",
".///(",
".///(",
".///(",
".///(",
".///(",
".///(",
".///(",
".///(",
".///(",
".///(",
".///(",
".///(",
".///(",
".///(",
".///(",
".///(",
".///(",
".///(",
".///(",
".///(",
".///(",
".///(",
".///(",
".///(",
".///(",
".///(",
".///(",
".///(",
".///(",
".///(",
".///(",
".///(",
".///(",
".///(",
".///(",
".///(",
".///(",
".///(",
".///(",
".///(",
".///(",
".///(",
".///(",
".///(",
".///(",
".///(",
".///(",
".///(",
".///(",
".///(",
".///(",
".///(",
".///(",
".///(",
".///(",
".///(",
".///(",
".///(",
".///(",
".///(",
".///(",
".///(",
".///(",
".///(",
".///(",
".///(",
".///(",
".///(",
".///(",
".///(",
".///(",
".///(",
".///(",
".///(",
".///(",
".///(",
".///(",
".///(",
".///(",
".///(",
".///(",
".///(",
".///(",
".///(",
".///(",
".///(",
".///(",
".///(",
".///(",
".///(",
".///(",
".///(",
".///(",
".///(",
".///(",
".///(",
".///(",
".///(",
".///(",
".///(",
".///(",
".///(",
".///(",
".///(",
".///(",
".///(",
".///(",
".///(",
".///(",
".///(",
".///(",
".///(",
".///(",
".///(",
".///(",
".///(",
".///(",
".///(",
".///(",
".///(",
".///(",
".///(",
".///(",
".///(",
".///(",
".///(",
".///(",
".///(",
".///(",
".///(",
".///(",
".///(",
".///(",
".///(",
".///(",
".///(",
".///(",
".///(",
".///(",
".///(",
".///(",
".///(",
".///(",
".///(",
".///(",
".///(",
".///(",
".///(",
".///(",
".///(",
".///(",
".///(",
".///(",
".///(",
".///(",
".///(",
".///(",
".///(",
".///(",
".///(",
".///(",
".///(",
".///(",
".///(",
".///(",
".///(",
".///(",
".///(",
".///(",
".///(",
".///(",
".///(",
".///(",
".///(",
".///(",
".///(",
".///(",
".///(",
".///(",
".///(",
".///(",
".///(",
".///(",
".///(",
".///(",
".///(",
".///(",
".///(",
".///(",
".///(",
".///(",
".///(",
".///(",
".///(",
".///(",
".///(",
".///(",
".///(",
".///(",
".///(",
".///(",
".///(",
".///(",
".///(",
".///(",
".///(",
".///(",
".///(",
".///(",
".///(",
".///(",
".///(",
".///(",
".///(",
".///(",
".///(",
".///(",
".///(",
".///(",
".///(",
".///(",
".///(",
".///(",
".///(",
".///(",
".///(",
".///(",
".///(",
".///(",
".///(",
".///(",
".///(",
".///(",
".///(",
".///(",
".///(",
".///(",
".///(",
".///(",
".///(",
".///(",
".///(",
".///(",
".///(",
".///(",
".///(",
".///(",
".///(",
".///(",
".///(",
".///(",
".///(",
".///(",
".///(",
".///(",
".///(",
".///(",
".///(",
".///(",
".///(",
".///(",
".///(",
".///(",
".///(",
".///(",
".///(",
".///(",
".///(",
".///(",
".///(",
".///(",
".///(",
".///(",
".///(",
".///(",
".///(",
".///(",
".///(",
".///(",
".///(",
".///(",
".///(",
".///(",
".///(",
".///(",
".///(",
".///(",
".///(",
".///(",
".///(",
".///(",
".///(",
".///(",
".///(",
".///(",
".///(",
".///(",
".///(",
".///(",
".///(",
".///(",
".///(",
".///(",
".///(",
".///(",
".///(",
".///(",
".///(",
".///(",
".///(",
".///(",
".///(",
".///(",
".///(",
".///(",
".///(",
".///(",
".///(",
".///(",
".///(",
".///(",
".///(",
".///(",
".///(",
".///(",
".///(",
".///(",
".///(",
".///(",
".///(",
".///(",
".///(",
".///(",
".///(",
".///(",
".///(",
".///(",
".///(",
".///(",
".///(",
".///(",
".///(",
".///(",
".///(",
".///(",
".///(",
".///(",
".///(",
".///(",
".///(",
".///(",
".///(",
".///(",
".///(",
".///(",
".///(",
".///(",
".///(",
".///(",
".///(",
".///(",
".///(",
".///(",
".///(",
".///(",
".///(",
".///(",
".///(",
".///(",
".///(",
".///(",
".///(",
".///(",
".///(",
".///(",
".///(",
".///(",
".///(",
".///(",
".///(",
".///(",
".///(",
".///(",
".///(",
".///(",
".///(",
".///(",
".///(",
".///(",
".///(",
".///(",
".///(",
".///(",
".///(",
".///(",
".///(",
".///(",
".///(",
".///(",
".///(",
".///(",
".///(",
".///(",
".///(",
".///(",
".///(",
".///(",
".///(",
".///(",
".///(",
".///(",
".///(",
".///(",
".///(",
".///(",
".///(",
".///(",
".///(",
".///(",
".///(",
".///(",
".///(",
".///(",
".///(",
".///(",
".///(",
".///(",
".///(",
".///(",
".///(",
".///(",
".///(",
".///(",
".///(",
".///(",
".///(",
".///(",
".///(",
".///(",
".///(",
".///(",
".///(",
".///(",
".///(",
".///(",
".///(",
".///(",
".///(",
".///(",
".///(",
".///(",
".///(",
".///(",
".///(",
".///(",
".///(",
".///(",
".///(",
".///(",
".///(",
".///(",
".///(",
".///(",
".///(",
".///(",
".///(",
".///(",
".///(",
".///(",
".///(",
".///(",
".///(",
".///(",
".///(",
".///(",
".///(",
".///(",
".///(",
".///(",
".///(",
".///(",
".///(",
".///(",
".///(",
".///(",
".///(",
".///(",
".///(",
".///(",
".///(",
".///(",
".///(",
".///(",
".///(",
".///(",
".///(",
".///(",
".///(",
".///(",
".///(",
".///(",
".///(",
".///(",
".///(",
".///(",
".///(",
".///(",
".///(",
".///(",
".///(",
".///(",
".///(",
".///(",
".///(",
".///(",
".///(",
".///(",
".///(",
".///(",
".///(",
".///(",
".///(",
".///(",
".///(",
".///(",
".///(",
".///(",
".///(",
".///(",
".///(",
".///(",
".///(",
".///(",
".///(",
".///(",
".///(",
".///(",
".///(",
".///(",
".///(",
".///(",
".///(",
".///(",
".///(",
".///(",
".///(",
".///(",
".///(",
".///(",
".///(",
".///(",
".///(",
".///(",
".///(",
".///(",
".///(",
".///(",
".///(",
".///(",
".///(",
".///(",
".///(",
".///(",
".///(",
".///(",
".///(",
".///(",
".///(",
".///(",
".///(",
".///(",
".///(",
".///(",
".///(",
".///(",
".///(",
".///(",
".///(",
".///(",
".///(",
".///(",
".///(",
".///(",
".///(",
".///(",
".///(",
".///(",
".///(",
".///(",
".///(",
".///(",
".///(",
".///(",
".///(",
".///(",
".///(",
".///(",
".///(",
".///(",
".///(",
".///(",
".///(",
".///(",
".///(",
".///(",
".///(",
".///(",
".///(",
".///(",
".///(",
".///(",
".///(",
".///(",
".///(",
".///(",
".///(",
".///(",
".///(",
".///(",
".///(",
".///(",
".///(",
".///(",
".///(",
".///(",
".///(",
".///(",
".///(",
".///(",
".///(",
".///(",
".///(",
".///(",
".///(",
".///(",
".///(",
".///(",
".///(",
".///(",
".///(",
".///(",
".///(",
".///(",
".///(",
".///(",
".///(",
".///(",
".///(",
".///(",
".///(",
".///(",
".///(",
".///(",
".///(",
".///(",
".///(",
".///(",
".///("};
