/* XPM */
static char * maximize_toggled_active_xpm[] = {
"27 22 49 1",
" 	c None",
".	c #222222",
"+	c #656565",
"@	c #7E7E7E",
"#	c #212121",
"$	c #7A7A7A",
"%	c #6C6C6C",
"&	c #777777",
"*	c #686868",
"=	c #202020",
"-	c #747474",
";	c #3C3C3C",
">	c #707070",
",	c #616161",
"'	c #3A3A3A",
")	c #FFFFFF",
"!	c #1F1F1F",
"~	c #6E6E6E",
"{	c #5E5E5E",
"]	c #383838",
"^	c #1E1E1E",
"/	c #6A6A6A",
"(	c #5A5A5A",
"_	c #363636",
":	c #676767",
"<	c #575757",
"[	c #343434",
"}	c #1D1D1D",
"|	c #646464",
"1	c #535353",
"2	c #313131",
"3	c #000000",
"4	c #444444",
"5	c #303030",
"6	c #1C1C1C",
"7	c #030303",
"8	c #494949",
"9	c #353535",
"0	c #060606",
"a	c #4D4D4D",
"b	c #090909",
"c	c #525252",
"d	c #3F3F3F",
"e	c #0C0C0C",
"f	c #454545",
"g	c #0F0F0F",
"h	c #4A4A4A",
"i	c #5C5C5C",
"j	c #121212",
" ......................... ",
".+@@@@@@@@@@@@@@@@@@@@@@@+.",
"#$%%%%%%%%%%%%%%%%%%%%%%%$#",
"#&***********************&#",
"=-+++++++;;;;;;;;++++++++-=",
"=>,,,,,,,'))))))',,,,,,,,>=",
"!~{{{{{{{]))))))]{{{{{{{{~!",
"^/(((((((_)____)_((((((((/^",
"^:<<<<<<<[)[<<[)[<<<<<<<<:^",
"}|11111112)2222)211111111|}",
"3455555556))))))65555555543",
"789999999!!!!!!!!9999999987",
"0a'''''''''''''''''''''''a0",
"bcdddddddddddddddddddddddcb",
"e<fffffffffffffffffffffff<e",
"ghiiiiiiiiiiiiiiiiiiiiiiihg",
" jjjjjjjjjjjjjjjjjjjjjjjjj ",
"                           ",
"                           ",
"                           ",
"                           ",
"                           "};
