/* XPM */
static char * maximize_toggled_pressed_xpm[] = {
"27 22 57 1",
" 	c None",
".	c #363636",
"+	c #3C3C3C",
"@	c #393939",
"#	c #2A8FCC",
"$	c #35B3FF",
"%	c #34ADF5",
"&	c #1EA4F4",
"*	c #333333",
"=	c #33A7EC",
"-	c #1D9DEA",
";	c #303030",
">	c #32A0E3",
",	c #1C96E0",
"'	c #105A86",
")	c #2D2D2D",
"!	c #319ADA",
"~	c #1B8FD6",
"{	c #105580",
"]	c #FFFFFF",
"^	c #2B2B2B",
"/	c #3095D1",
"(	c #1A89CC",
"_	c #0F527A",
":	c #272727",
"<	c #308EC8",
"[	c #1982C2",
"}	c #0F4E74",
"|	c #242424",
"1	c #2F88BF",
"2	c #187BB8",
"3	c #0E496E",
"4	c #222222",
"5	c #2E82B6",
"6	c #1774AE",
"7	c #0D4568",
"8	c #000000",
"9	c #30759E",
"0	c #1A6694",
"a	c #0F3D58",
"b	c #030303",
"c	c #3076A0",
"d	c #196796",
"e	c #0F3D5A",
"f	c #060606",
"g	c #3077A3",
"h	c #196899",
"i	c #090909",
"j	c #2F78A5",
"k	c #18699B",
"l	c #0C0C0C",
"m	c #2F7AA8",
"n	c #186B9E",
"o	c #0F0F0F",
"p	c #256288",
"q	c #2E7AAA",
"r	c #121212",
" .++++++++++++++++++++++++ ",
"@#$$$$$$$$$$$$$$$$$$$$$$$#@",
".%&&&&&&&&&&&&&&&&&&&&&&&%.",
"*=-----------------------=*",
";>,,,,,,,'''''''',,,,,,,,>;",
")!~~~~~~~{]]]]]]{~~~~~~~~!)",
"^/(((((((_]]]]]]_((((((((/^",
":<[[[[[[[}]}}}}]}[[[[[[[[<:",
"|122222223]3223]3222222221|",
"4566666667]7777]76666666654",
"890000000a]]]]]]a0000000098",
"bcdddddddeeeeeeeeddddddddcb",
"fghhhhhhhhhhhhhhhhhhhhhhhgf",
"ijkkkkkkkkkkkkkkkkkkkkkkkji",
"lmnnnnnnnnnnnnnnnnnnnnnnnml",
"opqqqqqqqqqqqqqqqqqqqqqqqpo",
" rrrrrrrrrrrrrrrrrrrrrrrrr ",
"                           ",
"                           ",
"                           ",
"                           ",
"                           "};
