/* XPM */
static char * menu_inactive_xpm[] = {
"15 26 12 1",
" 	c None",
".	c #393839",
"+	c #313431",
"@	c #000000",
"#	c #000400",
"$	c #080808",
"%	c #101010",
"&	c #101410",
"*	c #181C18",
"=	c #212021",
"-	c #212421",
";	c #292C29",
"               ",
"               ",
"               ",
"               ",
"               ",
"...............",
"...............",
"...............",
"...............",
"+++++++++++++++",
"+++++++++++++++",
"+++++++++++++++",
"@@@@@@@@@@@@@@@",
"###############",
"$$$$$$$$$$$$$$$",
"%%%%%%%%%%%%%%%",
"&&&&&&&&&&&&&&&",
"***************",
"===============",
"---------------",
";;;;;;;;;;;;;;;",
"               ",
"               ",
"               ",
"               ",
"               "};
