/* XPM */
static char * title_4_active_xpm[] = {
"3 27 24 1",
" 	c None",
".	c #313131",
"+	c #A3A4A4",
"@	c #717171",
"#	c #6C6C6C",
"$	c #676767",
"%	c #626262",
"&	c #5C5C5C",
"*	c #575757",
"=	c #525252",
"-	c #4D4D4D",
";	c #474747",
">	c #424242",
",	c #3D3D3D",
"'	c #000000",
")	c #050505",
"!	c #0B0B0B",
"~	c #101010",
"{	c #161616",
"]	c #1C1C1C",
"^	c #212121",
"/	c #272727",
"(	c #2D2D2D",
"_	c #333333",
"...",
"+++",
"@@@",
"###",
"$$$",
"%%%",
"&&&",
"***",
"===",
"---",
";;;",
">>>",
",,,",
"'''",
")))",
"!!!",
"~~~",
"{{{",
"]]]",
"^^^",
"///",
"(((",
"___",
"___",
"___",
"___",
"..."};
