/* XPM */
static char * top_left_active_xpm[] = {
"5 27 29 1",
" 	c None",
".	c #313131",
"+	c #6C6C6C",
"@	c #8B8C8D",
"#	c #616161",
"$	c #808182",
"%	c #636363",
"&	c #676767",
"*	c #626262",
"=	c #5E5E5E",
"-	c #5C5C5C",
";	c #141414",
">	c #575757",
",	c #525252",
"'	c #4D4D4D",
")	c #474747",
"!	c #424242",
"~	c #3D3D3D",
"{	c #000000",
"]	c #050505",
"^	c #0B0B0B",
"/	c #101010",
"(	c #161616",
"_	c #1C1C1C",
":	c #212121",
"<	c #272727",
"[	c #2D2D2D",
"}	c #333333",
"|	c #353535",
"     ",
"   ..",
"  .+@",
" .#$+",
" .%&&",
".*=**",
".----",
";>>>>",
";,,,,",
";''''",
";))))",
";!!!!",
";~~~~",
";{{{{",
";]]]]",
";^^^^",
";////",
";((((",
";____",
";::::",
";<<<<",
";[[[[",
";}}}}",
";}}}}",
";}}}}",
";}}}}",
";|||."};
