/* XPM */
static char * bottom_inactive_xpm[] = {
"13 5 4 1",
" 	c None",
".	c #313131",
"+	c #474747",
"@	c #141414",
".............",
"+++++++++++++",
"+++++++++++++",
"+++++++++++++",
"@@@@@@@@@@@@@"};
