/* XPM */
static char * bottom_right_inactive_xpm[] = {
"16 16 4 1",
" 	c None",
".	c #313131",
"+	c #474747",
"@	c #141414",
"           .+++@",
"           .+++@",
"           .+++@",
"           .+++@",
"           .+++@",
"           .+++@",
"           .+++@",
"           .+++@",
"           .+++@",
"           .+++@",
"           .+++@",
"............+++@",
"+++++++++++++++@",
"+++++++++++++++@",
"+++++++++++++++@",
"@@@@@@@@@@@@@@@@"};
