/* XPM */
static char * close_pressed_xpm[] = {
"27 22 61 1",
" 	c None",
".	c #363636",
"+	c #3C3C3C",
"@	c #393939",
"#	c #2A8FCC",
"$	c #35B3FF",
"%	c #34ADF5",
"&	c #1EA4F4",
"*	c #333333",
"=	c #33A7EC",
"-	c #1D9DEA",
";	c #177EBB",
">	c #115E8C",
",	c #303030",
"'	c #32A0E3",
")	c #1C96E0",
"!	c #115A86",
"~	c #FFFFFF",
"{	c #2D2D2D",
"]	c #319ADA",
"^	c #1B8FD6",
"/	c #105680",
"(	c #2B2B2B",
"_	c #3095D1",
":	c #1A89CC",
"<	c #10527A",
"[	c #272727",
"}	c #308EC8",
"|	c #1982C2",
"1	c #0F4E74",
"2	c #242424",
"3	c #2F88BF",
"4	c #187BB8",
"5	c #0E4A6E",
"6	c #222222",
"7	c #2E82B6",
"8	c #1774AE",
"9	c #0E4668",
"0	c #000000",
"a	c #30759E",
"b	c #1A6694",
"c	c #103D59",
"d	c #030303",
"e	c #3076A0",
"f	c #196796",
"g	c #0F3E5A",
"h	c #060606",
"i	c #3077A3",
"j	c #196899",
"k	c #14537A",
"l	c #0F3E5C",
"m	c #090909",
"n	c #2F78A5",
"o	c #18699B",
"p	c #0C0C0C",
"q	c #2F7AA8",
"r	c #186B9E",
"s	c #0F0F0F",
"t	c #256288",
"u	c #2E7AAA",
"v	c #121212",
" .++++++++++++++++++++++++ ",
"@#$$$$$$$$$$$$$$$$$$$$$$$#@",
".%&&&&&&&&&&&&&&&&&&&&&&&%.",
"*=------;>>---->>;-------=*",
",'))))))!~~!))!~~!)))))))',",
"{]^^^^^^/~~~//~~~/^^^^^^^]{",
"(_:::::::<~~~~~~<::::::::_(",
"[}||||||||1~~~~1|||||||||}[",
"23444444445~~~~544444444432",
"6788888889~~~~~~98888888876",
"0abbbbbbc~~~cc~~~cbbbbbbba0",
"deffffffg~~gffg~~gfffffffed",
"hijjjjjjklljjjjllkjjjjjjjih",
"mnooooooooooooooooooooooonm",
"pqrrrrrrrrrrrrrrrrrrrrrrrqp",
"stuuuuuuuuuuuuuuuuuuuuuuuts",
" vvvvvvvvvvvvvvvvvvvvvvvvv ",
"                           ",
"                           ",
"                           ",
"                           ",
"                           "};
