/* XPM */
static char * maximize_pressed_xpm[] = {
"27 22 59 1",
" 	c None",
".	c #363636",
"+	c #3C3C3C",
"@	c #393939",
"#	c #2A8FCC",
"$	c #35B3FF",
"%	c #34ADF5",
"&	c #1EA4F4",
"*	c #333333",
"=	c #33A7EC",
"-	c #1D9DEA",
";	c #115E8C",
">	c #303030",
",	c #32A0E3",
"'	c #1C96E0",
")	c #105A86",
"!	c #FFFFFF",
"~	c #2D2D2D",
"{	c #319ADA",
"]	c #1B8FD6",
"^	c #105580",
"/	c #2B2B2B",
"(	c #3095D1",
"_	c #1A89CC",
":	c #0F527A",
"<	c #272727",
"[	c #308EC8",
"}	c #1982C2",
"|	c #0F4E74",
"1	c #242424",
"2	c #2F88BF",
"3	c #187BB8",
"4	c #0E496E",
"5	c #222222",
"6	c #2E82B6",
"7	c #1774AE",
"8	c #0D4568",
"9	c #000000",
"0	c #30759E",
"a	c #1A6694",
"b	c #0F3D58",
"c	c #030303",
"d	c #3076A0",
"e	c #196796",
"f	c #0F3D5A",
"g	c #060606",
"h	c #3077A3",
"i	c #196899",
"j	c #0F3E5B",
"k	c #090909",
"l	c #2F78A5",
"m	c #18699B",
"n	c #0C0C0C",
"o	c #2F7AA8",
"p	c #186B9E",
"q	c #0F0F0F",
"r	c #256288",
"s	c #2E7AAA",
"t	c #121212",
" .++++++++++++++++++++++++ ",
"@#$$$$$$$$$$$$$$$$$$$$$$$#@",
".%&&&&&&&&&&&&&&&&&&&&&&&%.",
"*=------;;;;;;;;;;-------=*",
">,'''''')!!!!!!!!)''''''',>",
"~{]]]]]]^!!!!!!!!^]]]]]]]{~",
"/(______:!::::::!:_______(/",
"<[}}}}}}|!|}}}}|!|}}}}}}}[<",
"123333334!433334!4333333321",
"567777778!877778!8777777765",
"90aaaaaab!bbbbbb!baaaaaaa09",
"cdeeeeeef!!!!!!!!feeeeeeedc",
"ghiiiiiijjjjjjjjjjiiiiiiihg",
"klmmmmmmmmmmmmmmmmmmmmmmmlk",
"nopppppppppppppppppppppppon",
"qrsssssssssssssssssssssssrq",
" ttttttttttttttttttttttttt ",
"                           ",
"                           ",
"                           ",
"                           ",
"                           "};
