/* XPM */
static char * maximize_inactive_xpm[] = {
"27 22 50 1",
" 	c None",
".	c #222222",
"+	c #656565",
"@	c #7E7E7E",
"#	c #212121",
"$	c #7A7A7A",
"%	c #6C6C6C",
"&	c #777777",
"*	c #686868",
"=	c #3E3E3E",
"-	c #202020",
";	c #747474",
">	c #3D3D3D",
",	c #FFFFFF",
"'	c #707070",
")	c #616161",
"!	c #3A3A3A",
"~	c #1F1F1F",
"{	c #6E6E6E",
"]	c #5E5E5E",
"^	c #383838",
"/	c #1E1E1E",
"(	c #6A6A6A",
"_	c #5A5A5A",
":	c #363636",
"<	c #676767",
"[	c #575757",
"}	c #343434",
"|	c #1D1D1D",
"1	c #646464",
"2	c #535353",
"3	c #323232",
"4	c #000000",
"5	c #444444",
"6	c #303030",
"7	c #030303",
"8	c #494949",
"9	c #353535",
"0	c #060606",
"a	c #4D4D4D",
"b	c #232323",
"c	c #090909",
"d	c #525252",
"e	c #3F3F3F",
"f	c #0C0C0C",
"g	c #454545",
"h	c #0F0F0F",
"i	c #4A4A4A",
"j	c #5C5C5C",
"k	c #121212",
" ......................... ",
".+@@@@@@@@@@@@@@@@@@@@@@@+.",
"#$%%%%%%%%%%%%%%%%%%%%%%%$#",
"#&******==========*******&#",
"-;++++++>,,,,,,,,>+++++++;-",
"-'))))))!,,,,,,,,!)))))))'-",
"~{]]]]]]^,^^^^^^,^]]]]]]]{~",
"/(______:,:____:,:_______(/",
"/<[[[[[[},}[[[[},}[[[[[[[</",
"|12222223,322223,322222221|",
"45666666|,||||||,|666666654",
"78999999-,,,,,,,,-999999987",
"0a!!!!!!bbbbbbbbbb!!!!!!!a0",
"cdeeeeeeeeeeeeeeeeeeeeeeedc",
"f[ggggggggggggggggggggggg[f",
"hijjjjjjjjjjjjjjjjjjjjjjjih",
" kkkkkkkkkkkkkkkkkkkkkkkkk ",
"                           ",
"                           ",
"                           ",
"                           ",
"                           "};
