/* XPM */
static char * title_1_inactive_xpm[] = {
"3 27 28 1",
" 	c None",
".	c #313131",
"+	c #737373",
"@	c #797979",
"#	c #7E7F7F",
"$	c #636465",
"%	c #515252",
"&	c #3F3F3F",
"*	c #3E3E3E",
"=	c #3D3D3D",
"-	c #3C3C3C",
";	c #3B3B3B",
">	c #3A3A3A",
",	c #393939",
"'	c #383838",
")	c #373737",
"!	c #363636",
"~	c #353535",
"{	c #000000",
"]	c #050505",
"^	c #0B0B0B",
"/	c #101010",
"(	c #161616",
"_	c #1C1C1C",
":	c #212121",
"<	c #272727",
"[	c #2D2D2D",
"}	c #333333",
"...",
"+@#",
"$%&",
"***",
"===",
"---",
";;;",
">>>",
",,,",
"'''",
")))",
"!!!",
"~~~",
"{{{",
"]]]",
"^^^",
"///",
"(((",
"___",
":::",
"<<<",
"[[[",
"}}}",
"}}}",
"}}}",
"}}}",
"..."};
