/* XPM */
static char * top_right_inactive_xpm[] = {
"5 27 30 1",
" 	c None",
".	c #313131",
"+	c #747778",
"@	c #6C6F70",
"#	c #505151",
"$	c #636465",
"%	c #3D3D3D",
"&	c #4F5050",
"*	c #737677",
"=	c #3C3C3C",
"-	c #616263",
";	c #3B3B3B",
">	c #434444",
",	c #3A3A3A",
"'	c #141414",
")	c #393939",
"!	c #383838",
"~	c #373737",
"{	c #363636",
"]	c #353535",
"^	c #000000",
"/	c #050505",
"(	c #0B0B0B",
"_	c #101010",
":	c #161616",
"<	c #1C1C1C",
"[	c #212121",
"}	c #272727",
"|	c #2D2D2D",
"1	c #333333",
"     ",
"..   ",
"+@.  ",
"#$+. ",
"%&*. ",
"==-=.",
";;>;.",
",,,,'",
"))))'",
"!!!!'",
"~~~~'",
"{{{{'",
"]]]]'",
"^^^^'",
"////'",
"(((('",
"____'",
"::::'",
"<<<<'",
"[[[['",
"}}}}'",
"||||'",
"1111'",
"1111'",
"1111'",
"1111'",
".]]]'"};
